<svg width="400" height="150" viewBox="0 0 400 150" fill="none" xmlns="http://www.w3.org/2000/svg">
<path d="M342.93 121H335.095C330.785 107.182 328.402 95.8312 327.749 91.8831C327.423 89.4156 326.476 81.4208 325.301 69.1818C324.125 56.9429 325.464 42.368 326.28 36.6104H328.239C328.076 39.7359 327.749 47.2701 327.749 52.4026C327.749 57.5351 328.728 65.0693 329.218 68.1948C329.708 71.8139 331.079 81.026 332.646 88.9221C334.213 96.8182 340.155 113.597 342.93 121Z" fill="black"/>
<path d="M332.156 32.6623C332.156 34.8428 330.183 36.6104 327.749 36.6104C325.315 36.6104 323.341 34.8428 323.341 32.6623C323.341 30.4819 325.315 28.7143 327.749 28.7143C330.183 28.7143 332.156 30.4819 332.156 32.6623Z" fill="black"/>
<path d="M339.012 50.2563C338.62 41.1758 332.972 33.9706 330.197 31.5031H325.803C323.028 33.9706 317.38 41.1758 316.988 50.2563C316.172 46.4728 315.029 37.82 316.988 33.4771C314.05 35.9446 308.859 45.1239 311.601 62.1005C308.663 59.3039 302.982 51.7368 303.766 43.8407C304.549 35.9446 309.642 31.0096 312.091 29.5291C307.52 30.6806 297.106 35.5498 292.013 45.8148C291.85 41.2087 293.188 30.7135 299.848 25.581C306.508 20.4485 315.682 20.8104 319.437 21.6329C314.213 19.4943 301.611 16.0067 292.992 19.1651C295.277 16.2042 301.513 10.5785 308.173 11.7629C314.833 12.9473 320.089 15.5462 321.885 16.6976C319.11 13.572 311.503 7.51836 303.276 8.30797C306.704 7.32094 314.833 5.93911 319.926 8.30797C325.019 10.6768 327.749 13.9091 328.239 14.8961C328.728 13.9091 330.981 10.6768 336.074 8.30797C341.167 5.93911 349.296 7.32094 352.724 8.30797C344.497 7.51836 336.89 13.572 334.115 16.6976C335.911 15.5462 341.167 12.9473 347.827 11.7629C354.487 10.5785 360.723 16.2042 363.008 19.1651C354.389 16.0067 341.787 19.4943 336.563 21.6329C340.318 20.8104 349.492 20.4485 356.152 25.581C362.812 30.7135 364.15 41.2087 363.987 45.8148C358.894 35.5498 348.48 30.6806 343.909 29.5291C346.358 31.0096 351.451 35.9446 352.234 43.8407C353.018 51.7368 347.337 59.3039 344.399 62.1005C347.141 45.1239 341.95 35.9446 339.012 33.4771C340.971 37.82 339.828 46.4728 339.012 50.2563Z" fill="black"/>
<path d="M12.2524 61.9404V119.795H19.7733V94.2529H23.4191C24.9608 94.2529 26.2368 94.3936 27.2524 94.6696C28.2629 94.9508 29.1795 95.4196 30.0024 96.0863C30.8358 96.7425 31.6118 97.5967 32.3358 98.6488C33.0545 99.6904 33.9087 100.982 34.8983 102.524L41.4191 112.19C42.2524 113.456 43.0649 114.618 43.8566 115.67C44.6587 116.711 45.5285 117.607 46.4608 118.357C47.4035 119.097 48.466 119.685 49.6483 120.128C50.8254 120.571 52.242 120.795 53.8983 120.795C55.117 120.795 56.1118 120.737 56.8774 120.628C57.6535 120.513 58.4243 120.237 59.1899 119.795V116.732C58.9087 116.789 58.6327 116.831 58.3566 116.857C58.091 116.888 57.8202 116.899 57.5441 116.899C56.3879 116.899 55.367 116.743 54.4816 116.42C53.6066 116.086 52.7785 115.602 52.0024 114.961C51.2368 114.326 50.492 113.555 49.7733 112.649C49.0493 111.732 48.3045 110.701 47.5441 109.545C45.2212 106.185 43.4295 103.503 42.1691 101.503C40.9035 99.4925 39.8983 97.9352 39.1483 96.8363C38.4087 95.7269 37.8045 94.9196 37.3358 94.4196C36.8618 93.9196 36.2993 93.5133 35.6483 93.1904L34.8149 92.7738V92.4404C37.4504 92.2738 39.7212 91.7008 41.6274 90.7113C43.5285 89.7113 45.0858 88.4717 46.2941 86.9821C47.5129 85.4977 48.3983 83.8883 48.9399 82.1488C49.492 80.4144 49.7733 78.7217 49.7733 77.0654C49.7733 75.5811 49.4816 73.9561 48.8983 72.1904C48.3254 70.43 47.3358 68.7894 45.9191 67.2738C44.5129 65.7633 42.5962 64.4977 40.1691 63.4821C37.7524 62.4561 34.7004 61.9404 31.0233 61.9404H12.2524ZM19.7733 65.5863H28.1274C30.2108 65.5863 32.091 65.8936 33.7733 66.5029C35.4504 67.1019 36.8983 67.9404 38.1066 69.0238C39.3254 70.0967 40.2524 71.3727 40.8774 72.8571C41.5129 74.3467 41.8358 75.9717 41.8358 77.7321C41.8358 79.2217 41.5441 80.7217 40.9608 82.2321C40.3879 83.7477 39.5233 85.1279 38.3566 86.3779C37.2004 87.6175 35.7837 88.6227 34.1066 89.3988C32.4243 90.1644 30.4868 90.5446 28.2941 90.5446H19.7733V65.5863Z" fill="black"/>
<path d="M104.979 100.961V99.2109C104.979 95.5182 104.447 92.3255 103.395 89.6276C102.354 86.9349 100.937 84.7057 99.1452 82.9401C97.3535 81.1797 95.2702 79.8568 92.8952 78.9818C90.5306 78.0964 88.0306 77.6484 85.3952 77.6484C82.5723 77.6484 79.9785 78.138 77.6035 79.1068C75.2389 80.0651 73.1764 81.4714 71.416 83.3151C69.6504 85.1484 68.2702 87.3776 67.2702 90.0026C66.2806 92.6172 65.791 95.5755 65.791 98.8776C65.791 101.643 66.2129 104.336 67.0618 106.961C67.9212 109.576 69.2181 111.914 70.9577 113.982C72.6921 116.039 74.8952 117.69 77.5618 118.94C80.2389 120.174 83.4004 120.794 87.041 120.794C90.5671 120.794 93.8171 120.174 96.791 118.94C99.7598 117.69 102.354 115.909 104.562 113.586L101.916 110.961C100.76 111.951 99.6712 112.857 98.6452 113.69C97.6296 114.513 96.5931 115.201 95.541 115.753C94.4993 116.294 93.4056 116.721 92.2702 117.023C91.1452 117.331 89.8952 117.482 88.5202 117.482C86.9785 117.482 85.3379 117.247 83.6035 116.773C81.8639 116.305 80.2546 115.461 78.7702 114.253C77.2806 113.044 76.041 111.372 75.041 109.232C74.0514 107.081 73.5618 104.326 73.5618 100.961H104.979ZM73.5618 97.6484C73.5618 95.4401 73.7962 93.3099 74.2702 91.2526C74.7389 89.1849 75.4577 87.3516 76.416 85.7526C77.3848 84.1589 78.6139 82.8776 80.1035 81.9193C81.5879 80.9505 83.3535 80.4609 85.3952 80.4609C89.2962 80.4609 92.3379 81.9922 94.5202 85.0443C96.6973 88.1016 97.791 92.3047 97.791 97.6484H73.5618Z" fill="black"/>
<path d="M118.347 78.4821V119.795H125.368V78.4821H118.347ZM117.368 65.4196C117.368 66.6279 117.805 67.68 118.68 68.5654C119.566 69.4404 120.618 69.8779 121.826 69.8779C123.034 69.8779 124.076 69.4404 124.951 68.5654C125.836 67.68 126.284 66.6279 126.284 65.4196C126.284 64.2008 125.836 63.1488 124.951 62.2738C124.076 61.3883 123.034 60.9404 121.826 60.9404C120.618 60.9404 119.566 61.3883 118.68 62.2738C117.805 63.1488 117.368 64.2008 117.368 65.4196Z" fill="black"/>
<path d="M167.527 87.8988C167.527 86.4144 167.136 85.0394 166.36 83.7738C165.595 82.4977 164.532 81.4092 163.173 80.5029C161.824 79.5863 160.256 78.8727 158.464 78.3571C156.683 77.8311 154.777 77.5654 152.735 77.5654C150.803 77.5654 148.996 77.8154 147.319 78.3154C145.636 78.805 144.173 79.5446 142.923 80.5446C141.683 81.5342 140.704 82.7529 139.985 84.2113C139.277 85.6696 138.923 87.3675 138.923 89.2946C138.923 91.9508 139.527 94.0446 140.735 95.5863C141.954 97.1279 143.475 98.3727 145.298 99.3154C147.115 100.248 149.079 101.003 151.194 101.586C153.319 102.159 155.287 102.789 157.11 103.482C158.928 104.164 160.444 105.034 161.652 106.086C162.86 107.128 163.464 108.56 163.464 110.378C163.464 111.144 163.339 111.94 163.089 112.774C162.85 113.597 162.402 114.352 161.735 115.045C161.079 115.727 160.173 116.305 159.006 116.774C157.85 117.248 156.391 117.482 154.631 117.482C152.423 117.482 150.558 117.144 149.048 116.461C147.532 115.769 146.287 114.94 145.319 113.982C144.36 113.013 143.673 112.034 143.256 111.045C142.85 110.045 142.652 109.211 142.652 108.545H137.277C137.277 110.102 137.631 111.607 138.339 113.065C139.058 114.524 140.152 115.831 141.61 116.982C143.069 118.138 144.86 119.06 146.985 119.753C149.11 120.446 151.574 120.795 154.381 120.795C159.449 120.795 163.261 119.68 165.819 117.44C168.386 115.206 169.673 112.269 169.673 108.628C169.673 105.993 169.048 103.873 167.798 102.274C166.558 100.68 165.006 99.3988 163.131 98.4404C161.266 97.4717 159.246 96.6852 157.069 96.0863C154.886 95.4769 152.86 94.8467 150.985 94.1904C149.121 93.5238 147.569 92.7269 146.319 91.7946C145.079 90.8519 144.464 89.5238 144.464 87.8154C144.464 87.0967 144.6 86.3363 144.881 85.5446C145.157 84.7425 145.621 83.9977 146.277 83.3154C146.944 82.6227 147.824 82.0446 148.923 81.5863C150.032 81.1175 151.412 80.8779 153.069 80.8779C154.72 80.8779 156.152 81.1175 157.36 81.5863C158.569 82.0446 159.579 82.6227 160.402 83.3154C161.235 83.9977 161.845 84.7529 162.235 85.5863C162.621 86.4092 162.819 87.18 162.819 87.8988H167.527Z" fill="black"/>
<path d="M184.128 61.9404V119.795H191.649V91.0238H217.274V87.2321H191.649V66.4821H221.483V61.9404H184.128Z" fill="black"/>
<path d="M267.269 100.961V99.2109C267.269 95.5182 266.738 92.3255 265.686 89.6276C264.644 86.9349 263.227 84.7057 261.436 82.9401C259.644 81.1797 257.561 79.8568 255.186 78.9818C252.821 78.0964 250.321 77.6484 247.686 77.6484C244.863 77.6484 242.269 78.138 239.894 79.1068C237.529 80.0651 235.467 81.4714 233.707 83.3151C231.941 85.1484 230.561 87.3776 229.561 90.0026C228.571 92.6172 228.082 95.5755 228.082 98.8776C228.082 101.643 228.503 104.336 229.352 106.961C230.212 109.576 231.509 111.914 233.248 113.982C234.983 116.039 237.186 117.69 239.852 118.94C242.529 120.174 245.691 120.794 249.332 120.794C252.858 120.794 256.108 120.174 259.082 118.94C262.05 117.69 264.644 115.909 266.852 113.586L264.207 110.961C263.05 111.951 261.962 112.857 260.936 113.69C259.92 114.513 258.884 115.201 257.832 115.753C256.79 116.294 255.696 116.721 254.561 117.023C253.436 117.331 252.186 117.482 250.811 117.482C249.269 117.482 247.628 117.247 245.894 116.773C244.154 116.305 242.545 115.461 241.061 114.253C239.571 113.044 238.332 111.372 237.332 109.232C236.342 107.081 235.852 104.326 235.852 100.961H267.269ZM235.852 97.6484C235.852 95.4401 236.087 93.3099 236.561 91.2526C237.029 89.1849 237.748 87.3516 238.707 85.7526C239.675 84.1589 240.904 82.8776 242.394 81.9193C243.878 80.9505 245.644 80.4609 247.686 80.4609C251.587 80.4609 254.628 81.9922 256.811 85.0443C258.988 88.1016 260.082 92.3047 260.082 97.6484H235.852Z" fill="black"/>
<path d="M314.7 100.961V99.2109C314.7 95.5182 314.169 92.3255 313.117 89.6276C312.075 86.9349 310.659 84.7057 308.867 82.9401C307.075 81.1797 304.992 79.8568 302.617 78.9818C300.252 78.0964 297.752 77.6484 295.117 77.6484C292.294 77.6484 289.7 78.138 287.325 79.1068C284.961 80.0651 282.898 81.4714 281.138 83.3151C279.372 85.1484 277.992 87.3776 276.992 90.0026C276.002 92.6172 275.513 95.5755 275.513 98.8776C275.513 101.643 275.935 104.336 276.784 106.961C277.643 109.576 278.94 111.914 280.679 113.982C282.414 116.039 284.617 117.69 287.284 118.94C289.961 120.174 293.122 120.794 296.763 120.794C300.289 120.794 303.539 120.174 306.513 118.94C309.481 117.69 312.075 115.909 314.284 113.586L311.638 110.961C310.481 111.951 309.393 112.857 308.367 113.69C307.351 114.513 306.315 115.201 305.263 115.753C304.221 116.294 303.127 116.721 301.992 117.023C300.867 117.331 299.617 117.482 298.242 117.482C296.7 117.482 295.06 117.247 293.325 116.773C291.586 116.305 289.976 115.461 288.492 114.253C287.002 113.044 285.763 111.372 284.763 109.232C283.773 107.081 283.284 104.326 283.284 100.961H314.7ZM283.284 97.6484C283.284 95.4401 283.518 93.3099 283.992 91.2526C284.461 89.1849 285.179 87.3516 286.138 85.7526C287.106 84.1589 288.336 82.8776 289.825 81.9193C291.31 80.9505 293.075 80.4609 295.117 80.4609C299.018 80.4609 302.06 81.9922 304.242 85.0443C306.419 88.1016 307.513 92.3047 307.513 97.6484H283.284Z" fill="black"/>
<path d="M391.053 61.9404H384.032V85.2529H383.699C383.141 83.8258 382.407 82.6279 381.49 81.6696C380.584 80.7008 379.553 79.9144 378.386 79.3154C377.23 78.7061 376.011 78.2633 374.719 77.9821C373.428 77.7061 372.12 77.5654 370.803 77.5654C368.037 77.5654 365.495 78.0811 363.178 79.1071C360.87 80.1227 358.876 81.5654 357.199 83.4404C355.516 85.305 354.204 87.5602 353.261 90.2113C352.329 92.8519 351.865 95.7946 351.865 99.0446C351.865 102.352 352.329 105.347 353.261 108.024C354.204 110.69 355.516 112.977 357.199 114.878C358.876 116.784 360.87 118.248 363.178 119.274C365.495 120.284 368.037 120.795 370.803 120.795C377.303 120.795 381.6 118.232 383.699 113.107H384.032V119.795H391.053V61.9404ZM384.032 103.274C384.032 105.097 383.725 106.815 383.115 108.44C382.501 110.065 381.683 111.472 380.657 112.649C379.641 113.831 378.433 114.769 377.032 115.461C375.626 116.144 374.126 116.482 372.532 116.482C370.766 116.482 369.115 116.17 367.574 115.545C366.032 114.909 364.678 113.899 363.511 112.524C362.355 111.149 361.433 109.357 360.74 107.149C360.058 104.94 359.719 102.295 359.719 99.2113C359.719 96.0758 360.058 93.4092 360.74 91.2113C361.433 89.0029 362.37 87.2008 363.553 85.7946C364.745 84.3779 366.115 83.3571 367.657 82.7321C369.199 82.0967 370.824 81.7738 372.532 81.7738C374.074 81.7738 375.532 82.0967 376.907 82.7321C378.292 83.3571 379.511 84.2946 380.553 85.5446C381.594 86.7842 382.433 88.2842 383.074 90.0446C383.709 91.8102 384.032 93.8154 384.032 96.0654V103.274Z" fill="black"/>
</svg>
