<svg width="309" height="157" viewBox="0 0 309 157" fill="none" xmlns="http://www.w3.org/2000/svg">
<path d="M12 12V69.8542H19.5208V44.3125H23.1667C24.7083 44.3125 25.9844 44.4531 27 44.7292C28.0104 45.0104 28.9271 45.4792 29.75 46.1458C30.5833 46.8021 31.3594 47.6563 32.0833 48.7083C32.8021 49.75 33.6563 51.0417 34.6458 52.5833L41.1667 62.25C42 63.5156 42.8125 64.6771 43.6042 65.7292C44.4063 66.7708 45.276 67.6667 46.2083 68.4167C47.151 69.1563 48.2135 69.7448 49.3958 70.1875C50.5729 70.6302 51.9896 70.8542 53.6458 70.8542C54.8646 70.8542 55.8594 70.7969 56.625 70.6875C57.401 70.5729 58.1719 70.2969 58.9375 69.8542V66.7917C58.6563 66.849 58.3802 66.8906 58.1042 66.9167C57.8385 66.9479 57.5677 66.9583 57.2917 66.9583C56.1354 66.9583 55.1146 66.8021 54.2292 66.4792C53.3542 66.1458 52.526 65.6615 51.75 65.0208C50.9844 64.3854 50.2396 63.6146 49.5208 62.7083C48.7969 61.7917 48.0521 60.7604 47.2917 59.6042C44.9688 56.2448 43.1771 53.5625 41.9167 51.5625C40.651 49.5521 39.6458 47.9948 38.8958 46.8958C38.1563 45.7865 37.5521 44.9792 37.0833 44.4792C36.6094 43.9792 36.0469 43.5729 35.3958 43.25L34.5625 42.8333V42.5C37.1979 42.3333 39.4688 41.7604 41.375 40.7708C43.276 39.7708 44.8333 38.5313 46.0417 37.0417C47.2604 35.5573 48.1458 33.9479 48.6875 32.2083C49.2396 30.474 49.5208 28.7812 49.5208 27.125C49.5208 25.6406 49.2292 24.0156 48.6458 22.25C48.0729 20.4896 47.0833 18.849 45.6667 17.3333C44.2604 15.8229 42.3438 14.5573 39.9167 13.5417C37.5 12.5156 34.4479 12 30.7708 12H12ZM19.5208 15.6458H27.875C29.9583 15.6458 31.8385 15.9531 33.5208 16.5625C35.1979 17.1615 36.6458 18 37.8542 19.0833C39.0729 20.1562 40 21.4323 40.625 22.9167C41.2604 24.4062 41.5833 26.0312 41.5833 27.7917C41.5833 29.2812 41.2917 30.7812 40.7083 32.2917C40.1354 33.8073 39.2708 35.1875 38.1042 36.4375C36.9479 37.6771 35.5313 38.6823 33.8542 39.4583C32.1719 40.224 30.2344 40.6042 28.0417 40.6042H19.5208V15.6458Z" fill="#FFF8F2"/>
<path d="M104.726 51.0205V49.2705C104.726 45.5778 104.195 42.3851 103.143 39.6872C102.101 36.9945 100.684 34.7653 98.8927 32.9997C97.1011 31.2393 95.0177 29.9163 92.6427 29.0413C90.2782 28.1559 87.7782 27.708 85.1427 27.708C82.3198 27.708 79.7261 28.1976 77.3511 29.1663C74.9865 30.1247 72.924 31.5309 71.1636 33.3747C69.3979 35.208 68.0177 37.4372 67.0177 40.0622C66.0282 42.6768 65.5386 45.6351 65.5386 48.9372C65.5386 51.7028 65.9604 54.3955 66.8094 57.0205C67.6688 59.6351 68.9657 61.9736 70.7052 64.0413C72.4396 66.0986 74.6427 67.7497 77.3094 68.9997C79.9865 70.2341 83.1479 70.8538 86.7886 70.8538C90.3146 70.8538 93.5646 70.2341 96.5386 68.9997C99.5073 67.7497 102.101 65.9684 104.309 63.6455L101.664 61.0205C100.507 62.0101 99.4188 62.9163 98.3927 63.7497C97.3771 64.5726 96.3407 65.2601 95.2886 65.8122C94.2469 66.3538 93.1532 66.7809 92.0177 67.083C90.8927 67.3903 89.6427 67.5413 88.2677 67.5413C86.7261 67.5413 85.0854 67.307 83.3511 66.833C81.6115 66.3643 80.0021 65.5205 78.5177 64.3122C77.0282 63.1038 75.7886 61.432 74.7886 59.2913C73.799 57.1403 73.3094 54.3851 73.3094 51.0205H104.726ZM73.3094 47.708C73.3094 45.4997 73.5438 43.3695 74.0177 41.3122C74.4865 39.2445 75.2052 37.4111 76.1636 35.8122C77.1323 34.2184 78.3615 32.9372 79.8511 31.9788C81.3354 31.0101 83.1011 30.5205 85.1427 30.5205C89.0438 30.5205 92.0854 32.0518 94.2677 35.1038C96.4448 38.1611 97.5386 42.3643 97.5386 47.708H73.3094Z" fill="#FFF8F2"/>
<path d="M118.094 28.5417V69.8542H125.115V28.5417H118.094ZM117.115 15.4792C117.115 16.6875 117.553 17.7396 118.428 18.625C119.313 19.5 120.365 19.9375 121.574 19.9375C122.782 19.9375 123.824 19.5 124.699 18.625C125.584 17.7396 126.032 16.6875 126.032 15.4792C126.032 14.2604 125.584 13.2083 124.699 12.3333C123.824 11.4479 122.782 11 121.574 11C120.365 11 119.313 11.4479 118.428 12.3333C117.553 13.2083 117.115 14.2604 117.115 15.4792Z" fill="#FFF8F2"/>
<path d="M167.274 37.9583C167.274 36.474 166.884 35.099 166.108 33.8333C165.342 32.5573 164.28 31.4688 162.92 30.5625C161.571 29.6458 160.004 28.9323 158.212 28.4167C156.431 27.8906 154.524 27.625 152.483 27.625C150.55 27.625 148.743 27.875 147.066 28.375C145.384 28.8646 143.92 29.6042 142.67 30.6042C141.431 31.5938 140.451 32.8125 139.733 34.2708C139.024 35.7292 138.67 37.4271 138.67 39.3542C138.67 42.0104 139.274 44.1042 140.483 45.6458C141.701 47.1875 143.222 48.4323 145.045 49.375C146.863 50.3073 148.826 51.0625 150.941 51.6458C153.066 52.2188 155.035 52.849 156.858 53.5417C158.675 54.224 160.191 55.0938 161.399 56.1458C162.608 57.1875 163.212 58.6198 163.212 60.4375C163.212 61.2031 163.087 62 162.837 62.8333C162.597 63.6563 162.149 64.4115 161.483 65.1042C160.827 65.7865 159.92 66.3646 158.754 66.8333C157.597 67.3073 156.139 67.5417 154.379 67.5417C152.17 67.5417 150.306 67.2031 148.795 66.5208C147.28 65.8281 146.035 65 145.066 64.0417C144.108 63.0729 143.42 62.0938 143.004 61.1042C142.597 60.1042 142.399 59.2708 142.399 58.6042H137.024C137.024 60.1615 137.379 61.6667 138.087 63.125C138.806 64.5833 139.899 65.8906 141.358 67.0417C142.816 68.1979 144.608 69.1198 146.733 69.8125C148.858 70.5052 151.321 70.8542 154.129 70.8542C159.196 70.8542 163.009 69.7396 165.566 67.5C168.134 65.2656 169.42 62.3281 169.42 58.6875C169.42 56.0521 168.795 53.9323 167.545 52.3333C166.306 50.7396 164.754 49.4583 162.879 48.5C161.014 47.5312 158.993 46.7448 156.816 46.1458C154.634 45.5365 152.608 44.9062 150.733 44.25C148.868 43.5833 147.316 42.7865 146.066 41.8542C144.826 40.9115 144.212 39.5833 144.212 37.875C144.212 37.1562 144.347 36.3958 144.629 35.6042C144.905 34.8021 145.368 34.0573 146.024 33.375C146.691 32.6823 147.571 32.1042 148.67 31.6458C149.78 31.1771 151.16 30.9375 152.816 30.9375C154.467 30.9375 155.899 31.1771 157.108 31.6458C158.316 32.1042 159.327 32.6823 160.149 33.375C160.983 34.0573 161.592 34.8125 161.983 35.6458C162.368 36.4688 162.566 37.2396 162.566 37.9583H167.274Z" fill="#FFF8F2"/>
<path d="M249.833 147H240.474C235.327 130.515 232.48 116.974 231.7 112.264C231.31 109.32 230.179 99.7827 228.776 85.1818C227.372 70.581 228.971 53.1934 229.945 46.3247H232.285C232.09 50.0534 231.7 59.0416 231.7 65.1645C231.7 71.2874 232.87 80.2756 233.455 84.0043C234.04 88.3218 235.678 99.3117 237.55 108.732C239.421 118.152 246.519 138.169 249.833 147Z" fill="#FFF8F2"/>
<path d="M236.964 41.6147C236.964 44.216 234.607 46.3247 231.7 46.3247C228.793 46.3247 226.436 44.216 226.436 41.6147C226.436 39.0135 228.793 36.9048 231.7 36.9048C234.607 36.9048 236.964 39.0135 236.964 41.6147Z" fill="#FFF8F2"/>
<path d="M245.153 62.604C244.685 51.7711 237.939 43.1755 234.624 40.2317H229.376C226.061 43.1755 219.315 51.7711 218.847 62.604C217.872 58.0903 216.507 47.7677 218.847 42.5867C215.337 45.5304 209.137 56.4811 212.413 76.7339C208.903 73.3977 202.118 64.3703 203.054 54.9504C203.989 45.5304 210.073 39.643 212.997 37.8768C207.538 39.2505 195.099 45.0595 189.015 57.3053C188.82 51.8104 190.419 39.2898 198.374 33.1668C206.329 27.0439 217.287 27.4756 221.771 28.4569C215.532 25.9055 200.48 21.7448 190.185 25.5128C192.915 21.9804 200.363 15.2691 208.318 16.6821C216.273 18.0951 222.551 21.1955 224.696 22.569C221.381 18.8403 212.296 11.6184 202.469 12.5604C206.563 11.3829 216.273 9.73438 222.356 12.5604C228.44 15.3864 231.7 19.2424 232.285 20.4199C232.87 19.2424 235.56 15.3864 241.644 12.5604C247.727 9.73438 257.437 11.3829 261.531 12.5604C251.704 11.6184 242.619 18.8403 239.304 22.569C241.449 21.1955 247.727 18.0951 255.682 16.6821C263.637 15.2691 271.085 21.9804 273.815 25.5128C263.52 21.7448 248.468 25.9055 242.229 28.4569C246.713 27.4756 257.671 27.0439 265.626 33.1668C273.581 39.2898 275.18 51.8104 274.985 57.3053C268.901 45.0595 256.462 39.2505 251.003 37.8768C253.927 39.643 260.011 45.5304 260.946 54.9504C261.882 64.3703 255.097 73.3977 251.588 76.7339C254.863 56.4811 248.663 45.5304 245.153 42.5867C247.493 47.7677 246.128 58.0903 245.153 62.604Z" fill="#FFF8F2"/>
<path d="M90 87.9404V145.795H97.5208V117.024H123.146V113.232H97.5208V92.4821H127.354V87.9404H90Z" fill="#FFF8F2"/>
<path d="M173.141 126.961V125.211C173.141 121.518 172.609 118.326 171.557 115.628C170.516 112.935 169.099 110.706 167.307 108.94C165.516 107.18 163.432 105.857 161.057 104.982C158.693 104.096 156.193 103.648 153.557 103.648C150.734 103.648 148.141 104.138 145.766 105.107C143.401 106.065 141.339 107.471 139.578 109.315C137.812 111.148 136.432 113.378 135.432 116.003C134.443 118.617 133.953 121.576 133.953 124.878C133.953 127.643 134.375 130.336 135.224 132.961C136.083 135.576 137.38 137.914 139.12 139.982C140.854 142.039 143.057 143.69 145.724 144.94C148.401 146.174 151.563 146.794 155.203 146.794C158.729 146.794 161.979 146.174 164.953 144.94C167.922 143.69 170.516 141.909 172.724 139.586L170.078 136.961C168.922 137.951 167.833 138.857 166.807 139.69C165.792 140.513 164.755 141.201 163.703 141.753C162.661 142.294 161.568 142.721 160.432 143.023C159.307 143.331 158.057 143.482 156.682 143.482C155.141 143.482 153.5 143.247 151.766 142.773C150.026 142.305 148.417 141.461 146.932 140.253C145.443 139.044 144.203 137.372 143.203 135.232C142.214 133.081 141.724 130.326 141.724 126.961H173.141ZM141.724 123.648C141.724 121.44 141.958 119.31 142.432 117.253C142.901 115.185 143.62 113.352 144.578 111.753C145.547 110.159 146.776 108.878 148.266 107.919C149.75 106.951 151.516 106.461 153.557 106.461C157.458 106.461 160.5 107.992 162.682 111.044C164.859 114.102 165.953 118.305 165.953 123.648H141.724Z" fill="#FFF8F2"/>
<path d="M220.572 126.961V125.211C220.572 121.518 220.041 118.326 218.988 115.628C217.947 112.935 216.53 110.706 214.738 108.94C212.947 107.18 210.863 105.857 208.488 104.982C206.124 104.096 203.624 103.648 200.988 103.648C198.166 103.648 195.572 104.138 193.197 105.107C190.832 106.065 188.77 107.471 187.009 109.315C185.244 111.148 183.863 113.378 182.863 116.003C181.874 118.617 181.384 121.576 181.384 124.878C181.384 127.643 181.806 130.336 182.655 132.961C183.514 135.576 184.811 137.914 186.551 139.982C188.285 142.039 190.488 143.69 193.155 144.94C195.832 146.174 198.994 146.794 202.634 146.794C206.16 146.794 209.41 146.174 212.384 144.94C215.353 143.69 217.947 141.909 220.155 139.586L217.509 136.961C216.353 137.951 215.264 138.857 214.238 139.69C213.223 140.513 212.186 141.201 211.134 141.753C210.093 142.294 208.999 142.721 207.863 143.023C206.738 143.331 205.488 143.482 204.113 143.482C202.572 143.482 200.931 143.247 199.197 142.773C197.457 142.305 195.848 141.461 194.363 140.253C192.874 139.044 191.634 137.372 190.634 135.232C189.645 133.081 189.155 130.326 189.155 126.961H220.572ZM189.155 123.648C189.155 121.44 189.389 119.31 189.863 117.253C190.332 115.185 191.051 113.352 192.009 111.753C192.978 110.159 194.207 108.878 195.697 107.919C197.181 106.951 198.947 106.461 200.988 106.461C204.889 106.461 207.931 107.992 210.113 111.044C212.291 114.102 213.384 118.305 213.384 123.648H189.155Z" fill="#FFF8F2"/>
<path d="M296.924 87.9404H289.903V111.253H289.57C289.013 109.826 288.278 108.628 287.362 107.67C286.456 106.701 285.424 105.914 284.258 105.315C283.101 104.706 281.883 104.263 280.591 103.982C279.299 103.706 277.992 103.565 276.674 103.565C273.909 103.565 271.367 104.081 269.049 105.107C266.742 106.123 264.747 107.565 263.07 109.44C261.388 111.305 260.075 113.56 259.133 116.211C258.2 118.852 257.737 121.795 257.737 125.045C257.737 128.352 258.2 131.347 259.133 134.024C260.075 136.69 261.388 138.977 263.07 140.878C264.747 142.784 266.742 144.248 269.049 145.274C271.367 146.284 273.909 146.795 276.674 146.795C283.174 146.795 287.471 144.232 289.57 139.107H289.903V145.795H296.924V87.9404ZM289.903 129.274C289.903 131.097 289.596 132.815 288.987 134.44C288.372 136.065 287.555 137.472 286.528 138.649C285.513 139.831 284.305 140.769 282.903 141.461C281.497 142.144 279.997 142.482 278.403 142.482C276.638 142.482 274.987 142.17 273.445 141.545C271.903 140.909 270.549 139.899 269.383 138.524C268.226 137.149 267.305 135.357 266.612 133.149C265.93 130.94 265.591 128.295 265.591 125.211C265.591 122.076 265.93 119.409 266.612 117.211C267.305 115.003 268.242 113.201 269.424 111.795C270.617 110.378 271.987 109.357 273.528 108.732C275.07 108.097 276.695 107.774 278.403 107.774C279.945 107.774 281.403 108.097 282.778 108.732C284.164 109.357 285.383 110.295 286.424 111.545C287.466 112.784 288.305 114.284 288.945 116.045C289.581 117.81 289.903 119.815 289.903 122.065V129.274Z" fill="#FFF8F2"/>
</svg>
