<svg width="85" height="129" viewBox="0 0 85 129" fill="none" xmlns="http://www.w3.org/2000/svg">
<path d="M55.9301 121H48.0947C43.7854 107.182 41.4021 95.8312 40.7491 91.8831C40.4226 89.4156 39.4758 81.4208 38.3005 69.1818C37.1252 56.9429 38.4638 42.368 39.2799 36.6104H41.2388C41.0755 39.7359 40.7491 47.2701 40.7491 52.4026C40.7491 57.5351 41.7285 65.0693 42.2182 68.1948C42.7079 71.8139 44.0791 81.026 45.6462 88.9221C47.2132 96.8182 53.1551 113.597 55.9301 121Z" fill="#FFF8F2"/>
<path d="M45.1562 32.6623C45.1562 34.8428 43.183 36.6104 40.7489 36.6104C38.3147 36.6104 36.3415 34.8428 36.3415 32.6623C36.3415 30.4819 38.3147 28.7143 40.7489 28.7143C43.183 28.7143 45.1562 30.4819 45.1562 32.6623Z" fill="#FFF8F2"/>
<path d="M52.012 50.2563C51.6203 41.1758 45.9723 33.9706 43.1972 31.5031H38.8028C36.0277 33.9706 30.3797 41.1758 29.988 50.2563C29.1718 46.4728 28.0291 37.82 29.988 33.4771C27.0497 35.9446 21.8588 45.1239 24.6012 62.1005C21.6629 59.3039 15.9823 51.7368 16.7658 43.8407C17.5493 35.9446 22.6423 31.0096 25.0909 29.5291C20.5202 30.6806 10.1057 35.5498 5.01275 45.8148C4.84951 41.2087 6.18806 30.7135 12.8481 25.581C19.5082 20.4485 28.6821 20.8104 32.4365 21.6329C27.213 19.4943 14.6111 16.0067 5.99217 19.1651C8.27748 16.2042 14.5131 10.5785 21.1732 11.7629C27.8333 12.9473 33.0895 15.5462 34.8851 16.6976C32.1101 13.572 24.5032 7.51836 16.2761 8.30797C19.7041 7.32094 27.8333 5.93911 32.9262 8.30797C38.0192 10.6768 40.7489 13.9091 41.2386 14.8961C41.7283 13.9091 43.9808 10.6768 49.0738 8.30797C54.1668 5.93911 62.2959 7.32094 65.7239 8.30797C57.4968 7.51836 49.89 13.572 47.1149 16.6976C48.9105 15.5462 54.1668 12.9473 60.8268 11.7629C67.4869 10.5785 73.7225 16.2042 76.0078 19.1651C67.3889 16.0067 54.7871 19.4943 49.5635 21.6329C53.3179 20.8104 62.4918 20.4485 69.1519 25.581C75.812 30.7135 77.1505 41.2087 76.9873 45.8148C71.8943 35.5498 61.4798 30.6806 56.9091 29.5291C59.3577 31.0096 64.4507 35.9446 65.2342 43.8407C66.0177 51.7368 60.3371 59.3039 57.3988 62.1005C60.1412 45.1239 54.9503 35.9446 52.012 33.4771C53.9709 37.82 52.8282 46.4728 52.012 50.2563Z" fill="#FFF8F2"/>
</svg>
